<svg version="1.1" viewBox="0 0 96 96" xmlns="http://www.w3.org/2000/svg" xmlns:xlink="http://www.w3.org/1999/xlink" id="Icons_LineCurveClockwise" overflow="hidden"><path d=" M 31.4 18.2 L 22 27.3 C 20.8 28.5 18.9 28.4 17.8 27.3 C 16.6 26.1 16.7 24.2 17.8 23.1 L 32.1 9.1 C 32.6 8.6 33.2 8.3 33.9 8.3 C 34 8.3 34.1 8.3 34.2 8.3 C 34.3 8.3 34.4 8.3 34.6 8.3 L 34.8 8.3 L 35 8.3 C 35.5 8.4 36 8.7 36.3 9.1 L 50.3 23.4 C 51.5 24.6 51.4 26.5 50.3 27.6 C 49.1 28.8 47.2 28.7 46.1 27.6 L 37.5 18.8 C 33.8 37.6 39 53.8 53.1 66.9 C 60.1 73.3 68.2 78.4 77.1 81.9 C 78.7 82.5 79.5 84.2 78.9 85.7 C 78.3 87.3 76.6 88.1 75.1 87.5 C 65.5 83.8 56.7 78.3 49.1 71.3 C 38.2 61.3 26.5 44 31.4 18.2 Z" stroke="none" stroke-width="1" stroke-dasharray="" stroke-dashoffset="1" fill="#777777" fill-opacity="1"/></svg>